/* XPM */
static char *e840aefcc0614463907b36199ba51746[] = {
/* columns rows colors chars-per-pixel */
"16 16 70 1 ",
"  c #343434",
". c #353535",
"X c #3A3A3A",
"o c #383D3F",
"O c #3C3C3C",
"+ c #3E3E3E",
"@ c #3B4041",
"# c #3C4244",
"$ c #3E4344",
"% c #3F4446",
"& c #36646E",
"* c #37646F",
"= c #37656F",
"- c #376470",
"; c #386570",
": c #386571",
"> c #386671",
", c #366D7A",
"< c #376D7A",
"1 c #366D7C",
"2 c #376D7C",
"3 c #376F7D",
"4 c #35707E",
"5 c #35707F",
"6 c #38707F",
"7 c #404647",
"8 c #434748",
"9 c #44494A",
"0 c #4B4B4B",
"q c #4C4C4C",
"w c gray30",
"e c #4E4E4E",
"r c gray31",
"t c #75505B",
"y c #C7272D",
"u c #C8272D",
"i c #D32127",
"p c #D02228",
"a c #D12228",
"s c #D1242A",
"d c #D4262C",
"f c #D4272D",
"g c #D62E34",
"h c #9E3B44",
"j c #9F3B44",
"k c #973F48",
"l c #814A54",
"z c #804A55",
"x c #814A55",
"c c #A24952",
"v c #CE484E",
"b c #DA4449",
"n c #DD5358",
"m c #DD555A",
"M c #E0686C",
"N c #E1797D",
"B c #8B9DA5",
"V c #E78C8F",
"C c #E88E91",
"Z c #EBA2A4",
"A c #ECA4A7",
"S c #A9BCC2",
"D c #E6C8CA",
"F c #F2C7C8",
"G c #F5D7D8",
"H c #F5D9DA",
"J c #F8E5E6",
"K c #F6ECED",
"L c #FAF4F4",
"P c None",
/* pixels */
"PPPPPPXrwXPPPPPP",
"PPPP7,5555<#PPPP",
"PPP>55555555>PPP",
"PP>5555555555;PP",
"P93363333333557P",
"P,<BKNsippipk5,P",
"+55tMJFbiiiih55+",
"w55ligZLCfiih53w",
"q55liiinGHmih550",
"O55liiiifVLAc35X",
"P,5tyuyyyyvDS5,P",
"P7455555555555$P",
"PP>5555555555&PP",
"PPP;53555553&PPP",
"PPPP@355553oPPPP",
"PPPPPP 00 PPPPPP"
};
