/* XPM */
static char *a42d038900344800fcc7619296a6a234[] = {
/* columns rows colors chars-per-pixel */
"32 32 188 2 ",
"   c gray16",
".  c gray18",
"X  c #2F2F2F",
"o  c #2A2F30",
"O  c #2B3032",
"+  c #2B3132",
"@  c #2C3132",
"#  c #2D3132",
"$  c #2D3133",
"%  c #2F3132",
"&  c #2D3234",
"*  c #2B3638",
"=  c #28363A",
"-  c #28373A",
";  c #29373A",
":  c #28373B",
">  c #2C3538",
",  c #2C3638",
"<  c #2C3639",
"1  c #2A383B",
"2  c #2B383B",
"3  c #2C383B",
"4  c #29393D",
"5  c #2B383C",
"6  c #2B393C",
"7  c #293A3E",
"8  c #2B3A3E",
"9  c #2B3A3F",
"0  c #2E3B3E",
"q  c #2E3B3F",
"w  c #313333",
"e  c #313334",
"r  c #303434",
"t  c #313536",
"y  c #333536",
"u  c #343434",
"i  c gray21",
"p  c gray22",
"a  c #393939",
"s  c #3A3A3A",
"d  c gray23",
"f  c #3F3F3F",
"g  c #2B3C40",
"h  c #283D42",
"j  c #2A3D42",
"k  c #2B3E42",
"l  c #293F44",
"z  c #2D4145",
"x  c #2E4145",
"c  c #2C4348",
"v  c #2D474E",
"b  c #304A51",
"n  c #2E525B",
"m  c #2F545E",
"M  c #30535B",
"N  c #30535C",
"B  c #2F5964",
"V  c #2F5A66",
"C  c #315762",
"Z  c #325962",
"A  c #315A64",
"S  c #305B66",
"D  c #315B66",
"F  c #315C66",
"G  c #325C66",
"H  c #325D67",
"J  c #315F6A",
"K  c #32606B",
"L  c #31606C",
"P  c #30606D",
"I  c #32616C",
"U  c #33616C",
"Y  c #32616D",
"T  c #31626D",
"R  c #31616E",
"E  c #32636F",
"W  c #34616C",
"Q  c #326370",
"!  c #336470",
"~  c #336C7B",
"^  c #346C7B",
"/  c #356F7D",
"(  c #366E7C",
")  c #366E7D",
"_  c #366F7D",
"`  c #356F7E",
"'  c #396D7B",
"]  c #396D7C",
"[  c #396E7C",
"{  c #396E7D",
"}  c #386F7E",
"|  c #396F7E",
" . c #35707E",
".. c #34707F",
"X. c #35707F",
"o. c #37717F",
"O. c #414141",
"+. c #434343",
"@. c gray27",
"#. c #464646",
"$. c #6A5560",
"%. c #6B5561",
"&. c #695661",
"*. c #6A5662",
"=. c #6B5662",
"-. c #55606D",
";. c #BA2D34",
":. c #BD2C34",
">. c #BD2D34",
",. c #BE2C34",
"<. c #CF232A",
"1. c #CB242A",
"2. c #CA252B",
"3. c #CB252B",
"4. c #CD242A",
"5. c #CC242B",
"6. c #CD242B",
"7. c #CE242A",
"8. c #C8262C",
"9. c #D22127",
"0. c #D32127",
"q. c #D12227",
"w. c #D22227",
"e. c #D42127",
"r. c #D52127",
"t. c #D22328",
"y. c #D0232A",
"u. c #D42329",
"i. c #D3272D",
"p. c #D6262C",
"a. c #D5282E",
"s. c #D72C31",
"d. c #D52F35",
"f. c #D82D33",
"g. c #D8363B",
"h. c #DA383D",
"j. c #9E3C45",
"k. c #D5444A",
"l. c #DB4348",
"z. c #DC474C",
"x. c #DE5257",
"c. c #DE555A",
"v. c #E05A5E",
"b. c #C65A60",
"n. c #E16266",
"m. c #E2676B",
"M. c #E26A6E",
"N. c #E6787C",
"B. c #3C7280",
"V. c #E67D80",
"C. c #578591",
"Z. c #78919B",
"A. c #E58A8D",
"S. c #EA8F92",
"D. c #EA9396",
"F. c #EA9C9F",
"G. c #E9A0A2",
"H. c #EEA5A8",
"J. c #EEB2B4",
"K. c #EDB5B7",
"L. c #ECBABC",
"P. c #DBCFD2",
"I. c #D6DADD",
"U. c #E9C3C5",
"Y. c #F2C7C8",
"T. c #F1C9CB",
"R. c #F2D3D4",
"E. c #F5D8D9",
"W. c #F4DADB",
"Q. c #F4DFE0",
"!. c #DEE2E4",
"~. c #F4E2E2",
"^. c #F8E6E6",
"/. c #F6EBEB",
"(. c #F6EDED",
"). c #F8F3F3",
"_. c #F8F4F4",
"`. c #FAF4F4",
"'. c #F8F7F7",
"]. c #F9F7F7",
"[. c #F9F8F8",
"{. c #FAF8F8",
"}. c #FBF9F9",
"|. c gray98",
" X c gray99",
".X c #FDFDFD",
"XX c #FEFEFE",
"oX c None",
/* pixels */
"oXoXoXoXoXoXoXoXoXoXoXoXoXoXs +.+.p oXoXoXoXoXoXoXoXoXoXoXoXoXoX",
"oXoXoXoXoXoXoXoXoXoXoX# x N P ~ ..R N x # oXoXoXoXoXoXoXoXoXoXoX",
"oXoXoXoXoXoXoXoX. 9 Q  .`  . ....... . . .R 1 X oXoXoXoXoXoXoXoX",
"oXoXoXoXoXoXoX& P ..B.`  . . .B...B. . . .`  .R + oXoXoXoXoXoXoX",
"oXoXoXoXoXoXg  . . .`  . .` ........ . .`  . . ...9 oXoXoXoXoXoX",
"oXoXoXoXoXc  . . .`  . . .` ` .. .~  .` B. . . .`  .l oXoXoXoXoX",
"oXoXoXoX9  . . .`  . . . .` B... . .`  ....... . . . .1 oXoXoXoX",
"oXoXoX# `  . .`  . . . .`  . . . .`  . .....~  . . . .` r oXoXoX",
"oXoXd H  .B.....`  .B...` `  . ...B. . . . .` `  . .....B i oXoX",
"oXoX>  . .` ..` | | ' ` ] ' ] ] ` ] ] ] ] ] ] ' ` ` B. .` * oXoX",
"oXoXH ` `  . .I.{.U.k.<.<.y.1.<.<.1.y.1.<.4.<.<.8.-. . ...B oXoX",
"oXe  .`  . . .L.{.XX).A.i.w.r.w.w.r.w.r.w.w.r.w.r.%. . .` B.# oX",
"oXq ....` `  .2.M.^.[.XXR.x.w.w.r.w.9.9.9.r.w.r.w.%.....`  .9 oX",
"oXb .... .` ` <.w.d.H.'.XX[.G.f.w.r.9.9.r.w.9.9.9.%..... . .v oX",
"oXZ  ... .`  .2.w.r.w.c.E.[.XX~.m.9.9.r.w.r.9.w.9.$.B... . .m oX",
"#.W ` B.`  . .2.r.w.r.w.i.S.`.XX XK.h.w.r.9.9.r.w.%. .`  .` J f ",
"#.J ` ` ` ` ..<.w.r.9.9.r.w.l.Y.[.XX(.V.y.w.r.w.r.%.` B.....J f ",
"oXC ` ..` ....1.r.9.9.r.w.r.9.y.N./.XX XT.z.w.r.w.%. .` ....m oX",
"oXb ....` B.` <.9.9.r.w.r.9.9.r.w.g.J.[.XX_.D.i.9.%...` ` ` v oX",
"oXq ..........1.9.r.w.r.r.9.r.w.r.r.w.n.Q.XX XW.v.%.` ` ` ` 9 oX",
"oXr  .B.......1.r.w.r.9.9.9.9.9.r.w.r.w.s.F.'..X`.Z..... .` w oX",
"oXoXB ..B.` ..j.;.:.:.;.:.;.:.:.;.,.;.:.;.;.b.P.!.C.....` B oXoX",
"oXoX* B.` ` .... .` ` ` ........` ......` ` ` ....` ....` * oXoX",
"oXoXp B ` ` ....B.` ` ` B.` ~ ..` B.....` ` ` B.` ` ..B.B i oXoX",
"oXoXoX& ` ......` ` ` ..............` ` ....` ` B...B.~ * oXoXoX",
"oXoXoXoX* B.....` ..` B.......B.....B.` ..B.` ` ....B.* oXoXoXoX",
"oXoXoXoXoXl ........ .` ..` ` ` ....` ` ....` ` ..` h oXoXoXoXoX",
"oXoXoXoXoXoX* ....B.`  ...` ` ` ` ..` ` ..........4 oXoXoXoXoXoX",
"oXoXoXoXoXoXoX+ J ` ` ` B. .`  .` ` B...B.....P & oXoXoXoXoXoXoX",
"oXoXoXoXoXoXoXoX  9 R  ...`  .` ` ` ....` R =   oXoXoXoXoXoXoXoX",
"oXoXoXoXoXoXoXoXoXoXoXo h n R ~ ~ R n h # oXoXoXoXoXoXoXoXoXoXoX",
"oXoXoXoXoXoXoXoXoXoXoXoXoXoXoX+.+.oXoXoXoXoXoXoXoXoXoXoXoXoXoXoX"
};
