/* XPM */
static char *af657d5d7f95466eb20e89692775196a[] = {
/* columns rows colors chars-per-pixel */
"64 64 114 2 ",
"   c #272C2C",
".  c #2A2D2E",
"X  c #252F32",
"o  c #2B2F30",
"O  c #263235",
"+  c #2C3132",
"@  c #263639",
"#  c #283639",
"$  c #26393E",
"%  c #29383B",
"&  c #343535",
"*  c #373838",
"=  c #3C3C3C",
"-  c #273D42",
";  c #2A3E43",
":  c #294146",
">  c #274148",
",  c #29444B",
"<  c #2B4B53",
"1  c #2C4F58",
"2  c #2D525B",
"3  c #2F5761",
"4  c #2E5A66",
"5  c #2F5D69",
"6  c #305E69",
"7  c #336774",
"8  c #336976",
"9  c #356E7D",
"0  c #3C6C7A",
"q  c #35707F",
"w  c #3E717F",
"e  c #434343",
"r  c #4A4A4A",
"t  c #545454",
"y  c #585858",
"u  c #53626F",
"i  c #B62E35",
"p  c #B63038",
"a  c #CD2329",
"s  c #C4282E",
"d  c #D52127",
"f  c #D4242A",
"g  c #D7292F",
"h  c #D62D32",
"j  c #D83137",
"k  c #D9343A",
"l  c #D6383E",
"z  c #9D3B44",
"x  c #9A3E48",
"c  c #A73740",
"v  c #A43941",
"b  c #A83A42",
"n  c #DB3E43",
"m  c #CD464C",
"M  c #DB4247",
"N  c #D9474C",
"B  c #DE4D52",
"V  c #CB5257",
"C  c #DE5256",
"Z  c #DD5A5E",
"A  c #D95D61",
"S  c #E15E62",
"D  c #DD7175",
"F  c #E2666A",
"G  c #E06E72",
"H  c #E57377",
"J  c #E67B7F",
"K  c #357180",
"L  c #427683",
"P  c #477987",
"I  c #E67E81",
"U  c #B18187",
"Y  c #B3999F",
"T  c #829BA4",
"R  c #E28286",
"E  c #E18789",
"W  c #E9898D",
"Q  c #EA9396",
"!  c #E49699",
"~  c #EB979A",
"^  c #E59C9E",
"/  c #EDA0A3",
"(  c #EDAAAC",
")  c #E9B1B3",
"_  c #F1B7B8",
"`  c #F2BCBE",
"'  c #AEBCC2",
"]  c #ECBFC0",
"[  c #F2BFC0",
"{  c #B4C1C7",
"}  c #C9CBCF",
"|  c #C5CCD0",
" . c #CFD1D4",
".. c #EDC6C7",
"X. c #F3C2C3",
"o. c #F6CDCE",
"O. c #EBCFD1",
"+. c #EFD1D2",
"@. c #F4D4D5",
"#. c #F7DDDE",
"$. c #F8DBDC",
"%. c #F1DFE0",
"&. c #F9DFE0",
"*. c #EAE5E6",
"=. c #EDEBEC",
"-. c #F2E2E3",
";. c #FAE5E5",
":. c #F4E6E8",
">. c #F5EBEC",
",. c #FAEBEB",
"<. c #F6F5F5",
"1. c #FBF4F4",
"2. c #FDFDFD",
"3. c None",
/* pixels */
"3.3.3.3.3.3.3.3.3.3.3.3.3.3.3.3.3.3.3.3.3.3.3.3.3.3.3.3.3.3.3.3.3.3.3.3.3.3.3.3.3.3.3.3.3.3.3.3.3.3.3.3.3.3.3.3.3.3.3.3.3.3.3.3.",
"3.3.3.3.3.3.3.3.3.3.3.3.3.3.3.3.3.3.3.3.3.3.3.3.3.3.* e = e r e r r r = e & 3.3.3.3.3.3.3.3.3.3.3.3.3.3.3.3.3.3.3.3.3.3.3.3.3.3.",
"3.3.3.3.3.3.3.3.3.3.3.3.3.3.3.3.3.3.3.3.3.3.* = * o # ; 1 4 7 9 8 7 4 1 ; O O = = & 3.3.3.3.3.3.3.3.3.3.3.3.3.3.3.3.3.3.3.3.3.3.",
"3.3.3.3.3.3.3.3.3.3.3.3.3.3.3.3.3.3.3.3.= & O < 9 q 9 q K K K 9 q K K K q q q 8 < O * = 3.3.3.3.3.3.3.3.3.3.3.3.3.3.3.3.3.3.3.3.",
"3.3.3.3.3.3.3.3.3.3.3.3.3.3.3.3.3.3.=   , 8 q q q 9 q K K q 9 q K q q 9 q K K q q q 9 ; o = 3.3.3.3.3.3.3.3.3.3.3.3.3.3.3.3.3.3.",
"3.3.3.3.3.3.3.3.3.3.3.3.3.3.3.3.=   < 9 q K q q 9 9 q q q 9 q K K q 9 q K K q q q K q 9 q , o e 3.3.3.3.3.3.3.3.3.3.3.3.3.3.3.3.",
"3.3.3.3.3.3.3.3.3.3.3.3.3.3.* & - 9 q q K K q 9 q q q q 9 q K K q 9 q K q q 9 q q q q q q q 9 - & = 3.3.3.3.3.3.3.3.3.3.3.3.3.3.",
"3.3.3.3.3.3.3.3.3.3.3.3.3.=   6 q 9 q K K q q q q q q q q q K q 9 q K q q 9 q q q q 9 q K K q 9 6 . e 3.3.3.3.3.3.3.3.3.3.3.3.3.",
"3.3.3.3.3.3.3.3.3.3.3.3.& # q q 9 K K K 9 9 q q q 9 9 q K q q 9 q K K q 9 9 K K q 9 9 K K q 9 q q 9 @ = 3.3.3.3.3.3.3.3.3.3.3.3.",
"3.3.3.3.3.3.3.3.3.3.3.* : q q 9 9 K K K 9 9 K q q 9 q K K q 9 q q q q 9 q K K q 9 q K K 9 9 q q q q q - = 3.3.3.3.3.3.3.3.3.3.3.",
"3.3.3.3.3.3.3.3.3.3.& < q q 9 q K K K 9 w K K q 9 q K K q 9 q q q q 9 q K K q 9 q K K q 9 q K K q 9 q K , * 3.3.3.3.3.3.3.3.3.3.",
"3.3.3.3.3.3.3.3.3.* < q q 9 q q K 9 9 9 K K K q q q q q 9 q K K q 9 q q q q 9 q q K q 9 q K K 9 9 q K K K , e 3.3.3.3.3.3.3.3.3.",
"3.3.3.3.3.3.3.3.* ; q q 9 q q q K 9 9 K K K 9 9 q K q 9 q q K q 9 q K K q 9 9 K K q 9 9 K K q 9 q q K q 9 q $ = 3.3.3.3.3.3.3.3.",
"3.3.3.3.3.3.3.= O q q 9 q q q q 9 9 K K K 9 9 K K q 9 q K q q 9 q q q q 9 q K K q 9 q K K q 9 q q q q q q K q X e 3.3.3.3.3.3.3.",
"3.3.3.3.3.3.=   9 9 9 q K q q 9 K K K K 9 9 K K 9 9 9 K q q 9 q q K q 9 9 K K q 9 q K K q 9 9 K q q 9 q K K K 8 . = 3.3.3.3.3.3.",
"3.3.3.3.3.3.o 3 q 9 q K K q 9 q K K 9 9 9 K K K 9 9 K K q 9 q K K q 9 q K K q 9 9 K K q 9 q K K q 9 q q q q q K 2 = 3.3.3.3.3.3.",
"3.3.3.3.3.= # w 9 q q K q 9 q K K q 9 q q K q 9 q q q q 9 q q K K 9 K K q q 9 q K K K 9 9 K K K 9 q q q q 9 q q q O e 3.3.3.3.3.",
"3.3.3.3.3.. 8 q q K q q 9 q K K q 9 q K K q 9 q q q q q q q q q 9 9 K K q 9 q K K 9 9 9 K K K 9 q q K q q q q q 9 7 & 3.3.3.3.3.",
"3.3.3.3.= ; 9 q q K q 9 q K K K 9 q q q q 9 9 q q q q q q K q 9 9 K 9 9 9 q K K K 9 9 K K K 8 9 K 9 q q q q q q 9 K $ r 3.3.3.3.",
"3.3.3.3.o 8 q q q q 9 q q q q w L L w 0 0 0 0 0 0 0 0 w 0 0 0 0 0 0 0 0 0 0 0 9 0 0 0 0 0 0 0 0 9 0 9 q q q q 9 9 K 8 + 3.3.3.3.",
"3.3.3.e % q q K q 9 q q K q T =.1.<.O.V a s a s s s a a s s a s a s s a a s a s s a s a s a s a s i u K K K q q K q q O r 3.3.3.",
"3.3.3.& 6 w K q q q q q q q *.2.2.2.<.1.~ g d f d d d d d d d d d a d d d d a d d d d a d d d d d d x K 9 9 q K K q q 4 e 3.3.3.",
"3.3.=   q q q q q q q q q q :.2.2.<.2.2.2.&.A d d d d a d d d d f d d d d a d d d d f d d d d a d d v K q q q K q q q K . 3.3.3.",
"3.3.= ; q q 9 q q q q 9 q q m [ <.2.2.2.2.<.2.( k d a d d d d a d d d d a d d d d a d d d d a d d d v 9 q q K q 9 q K K @ r 3.3.",
"3.3.* 3 q 9 9 K K q 9 9 K q s a G ;.2.2.<.2.2.2.,.D f d d d a d d d d a d d d d a d d d d d d d d f z 9 K q q 9 9 q q q 2 r 3.3.",
"3.3.o q 9 q K K q 9 q K q q s d d j ( <.2.2.2.2.<.2.X.M d a d d d d a d d d d d d d d d a d d d d a z K K q 9 q q q q 9 9 & 3.3.",
"3.* o 9 q q K 9 9 q K K q 9 s d d d a Z $.2.2.<.2.2.2.1.R f d d d a d d d d a d d d d a d d d d a d v K q 9 q q K q 9 q K . 3.3.",
"3.= O w K K q 9 q K K q 0 9 s d d a d d g Q >.2.2.2.2.<.2.@.C d a d d d d a d d d d d d d d d d d d v q 9 q K q q q q q K O e 3.",
"3.= ; K K w 9 q q q q 9 q q s d d d d d d a M o.2.2.<.2.2.2.2.^ g d d d a d d d d a d d d d a d d d v 9 q q K q q q q q q @ r 3.",
"3.= , q q 9 q K K q 9 q q q s a a d d d a d d d I >.2.2.2.2.<.2.;.F d a d d d d a d d d d a d d d d z 9 K q q q q K q q q - t 3.",
"3.r 1 q 9 q q K q 9 q q q q s d d d d a d d d d a l _ 2.2.<.2.2.2.2.) l d d d a d d d d a d d d d a z K q q 9 q q q q 9 q < t 3.",
"3.r 1 9 q q K q q q q q q q s d d d d d d d d a d d d F -.2.2.2.2.<.2.,.J d a d d d d a d d d d a d z K q 9 q K q q q q q 1 r 3.",
"3.e 1 q K q q 9 q q q q 9 q s d d d d d d d a d d d d a h / 2.2.<.2.2.2.2...N d d d a d d d d a d d v q 9 q q K q 9 q K K < r 3.",
"3.r 1 q K q 9 q q q q 9 9 w s d a d d d d a d d d d a d d d C +.2.2.2.2.<.2.2.Q g a d d d d a a d d v 9 q q K q q q q q q < t 3.",
"3.= , q q 9 q q q q 9 q q q s d d d d d a d d d d d d d d d a d W 1.2.<.2.2.2.2.+.A d d d a d d d d z 9 K K K 9 q q q q 9 - t 3.",
"3.= - q 9 9 q K q q q q q q s d d d d a d d d d a d d d d a d d d M X.2.2.2.2.<.1.2.( j d d d d d a z q K 9 9 9 q q q 9 q $ r 3.",
"3.e # 0 q q K q 9 q q q q 9 s d d d a d d d d a d d d d a d d d d a d H ,.2.<.2.2.2.2.%.G d d d a d v K K 9 9 K q q 9 q q O e 3.",
"3.3.. q q q q 9 q q q q 9 q s d d d d d d d a d d d d a d d d d a d d d k ( <.2.2.2.2.2.2.` n a d d z q 9 9 q K q q q q q O 3.3.",
"3.3.& 8 q q q q q q q q 9 w s d a d d d d d d d d d d d d d d a d d d d a f S ;.2.<.2.2.2.2.>.R f d v 9 K q K K 9 q q K q = 3.3.",
"3.3.= 3 q 9 q q q q 9 q 9 9 s a d d d d a d d d d a a d d d a d d d d a d d d h ! <.2.2.2.2.2.2.o.C z q K K q 9 9 q K q 1 r 3.3.",
"3.3.e $ 9 q q q q 9 9 q q q s a d d d d d d d d a d d d d a d d d d a d d d d a d B o.2.1.2.2.2.2.<.Y K K K 9 q q q K 9 O r 3.3.",
"3.3.3.. q q q q 9 q q q q q s d d d a a d d d a d d d d a d d d d d d d d d a d d d f I >.2.2.2.<.<.| K 9 9 9 q K q 9 K + 3.3.3.",
"3.3.3.* 4 q q q q q q q 9 q p d d a a d d d a d d d d a d d d d a a d d d a d d d d a d n ` 2.<.2.2.' K 9 K q K q 9 9 4 r 3.3.3.",
"3.3.3.e O q 9 q q q q 9 q q u x c c c c c c c c c c v v c c c v c c c c v v c c c v v v c b U }  .{ P 9 9 K K q q q q O r 3.3.3.",
"3.3.3.3.* 7 q q q q q q q q q q q q q q 7 q q q q 9 q q q q q q 9 q q q q q q q 9 q q q q q q q K q q q q K K q 9 q 8 e 3.3.3.3.",
"3.3.3.3.r - q K q 9 9 q q q 9 q q q q 9 8 q q q q q q q q 9 w q q q 9 q q q q 9 q q q q q q q q 9 q q q K q 9 9 K q $ r 3.3.3.3.",
"3.3.3.3.3.o 7 K q q q q q q q q q q q q q q q q q q q q q q q q q 9 q q q q q q q q q 9 q q q q q q q q K 9 9 K K 7 * 3.3.3.3.3.",
"3.3.3.3.3.e O q q q q q 9 q q q q q q q q q 9 9 q q q 9 9 q q q 9 9 q K q q 9 q q q q 9 q q q q q q q q 9 9 K K 9 @ r 3.3.3.3.3.",
"3.3.3.3.3.3.* 2 K K q 9 9 q q q q 9 q q q q q q q q q 9 q q q 9 q q q q q q q q q 9 q q q q q q q q q q q q q q 2 r 3.3.3.3.3.3.",
"3.3.3.3.3.3.3.& 9 K q q q q q q q q q q 9 q q q q q 9 q q q q q q q q 9 9 q q q 9 q q K q 9 9 q q q 9 q q K q 8 * 3.3.3.3.3.3.3.",
"3.3.3.3.3.3.3.e X q q q q q q 9 q q q 9 9 q q q q q q q q 9 q q q q q 9 q q q q 9 q q q q 9 q q q 9 9 q K q q # r 3.3.3.3.3.3.3.",
"3.3.3.3.3.3.3.3.= ; q q q q 9 q q q q q q q q q 9 q q q q q q q q q q q q q 9 q q q q 9 9 q q q 9 q q q q q $ r 3.3.3.3.3.3.3.3.",
"3.3.3.3.3.3.3.3.3.r > q 9 9 q q q 9 9 q q q q q q q q q 9 q q q q 9 q q q 9 9 q q q q 9 q K q 9 9 q K K 9 > r 3.3.3.3.3.3.3.3.3.",
"3.3.3.3.3.3.3.3.3.3.= > q q q q 9 q q q q 9 9 q q q 9 q q q q 9 9 q q q 9 q q q q q q q q q q q q q 9 9 > r 3.3.3.3.3.3.3.3.3.3.",
"3.3.3.3.3.3.3.3.3.3.3.r . q q q q q q q q 9 q q q 9 9 q q q q 9 q q q q q q q q q q q q q 9 q q q K q   r 3.3.3.3.3.3.3.3.3.3.3.",
"3.3.3.3.3.3.3.3.3.3.3.3.= . 8 q q q q 9 q q q q q q q q q q 9 q q q 9 q q q q 9 9 q q q 9 q q K q 8 o t 3.3.3.3.3.3.3.3.3.3.3.3.",
"3.3.3.3.3.3.3.3.3.3.3.3.3.= * 6 K q q q q q q 9 q q q q q q q q q q q q q q q 9 q q q q 9 q q q 5 = r 3.3.3.3.3.3.3.3.3.3.3.3.3.",
"3.3.3.3.3.3.3.3.3.3.3.3.3.3.3.e & q q q q q 9 q q q q 9 9 q q q 9 q q q q q 9 q q q q 9 q q 9 & r 3.3.3.3.3.3.3.3.3.3.3.3.3.3.3.",
"3.3.3.3.3.3.3.3.3.3.3.3.3.3.3.3.= =   9 q q q q q q q 9 q q q 9 9 q q q q q q q q 9 q q 9 X r e 3.3.3.3.3.3.3.3.3.3.3.3.3.3.3.3.",
"3.3.3.3.3.3.3.3.3.3.3.3.3.3.3.3.3.3.r e & 8 q q q q q q q q 9 q q q q q q q K q 9 9 9 * r e 3.3.3.3.3.3.3.3.3.3.3.3.3.3.3.3.3.3.",
"3.3.3.3.3.3.3.3.3.3.3.3.3.3.3.3.3.3.3.3.e r * & 8 9 q q q q 9 q q q 9 9 q q q 8 & = r r 3.3.3.3.3.3.3.3.3.3.3.3.3.3.3.3.3.3.3.3.",
"3.3.3.3.3.3.3.3.3.3.3.3.3.3.3.3.3.3.3.3.3.3.3.r r e = & & & & & & & & * * = r r r 3.3.3.3.3.3.3.3.3.3.3.3.3.3.3.3.3.3.3.3.3.3.3.",
"3.3.3.3.3.3.3.3.3.3.3.3.3.3.3.3.3.3.3.3.3.3.3.3.3.3.3.= e y t t t t y e e 3.3.3.3.3.3.3.3.3.3.3.3.3.3.3.3.3.3.3.3.3.3.3.3.3.3.3.",
"3.3.3.3.3.3.3.3.3.3.3.3.3.3.3.3.3.3.3.3.3.3.3.3.3.3.3.3.3.3.3.3.3.3.3.3.3.3.3.3.3.3.3.3.3.3.3.3.3.3.3.3.3.3.3.3.3.3.3.3.3.3.3.3."
};
